<?xml version="1.0" encoding="utf-8"?>
<!-- Generator: Adobe Illustrator 22.1.0, SVG Export Plug-In . SVG Version: 6.00 Build 0)  -->
<svg version="1.1" id="Layer_1" xmlns="http://www.w3.org/2000/svg" xmlns:xlink="http://www.w3.org/1999/xlink" x="0px" y="0px"
	 viewBox="0 0 429.1 500" style="enable-background:new 0 0 429.1 500;" xml:space="preserve">
<style type="text/css">
	.st0{fill:#FFFFFF;}
</style>
<g id="XMLID_1_">
	<path id="XMLID_3_" class="st0" d="M370.6,232.9c-7.6,11.2-16.3,22.2-26.2,32.8L318.8,293c27.8,18.8,34.4,46.9,30.3,69
		c-5.1,27.6-28.8,59.8-80.3,59h-70.1l-74.1,79h143.8l2.6,0c78.3,0,142.4-50.9,155.8-123.8C434.7,333.4,423.6,273,370.6,232.9z"/>
	<path id="XMLID_2_" class="st0" d="M340.1,79.9C321.5,33.2,278.9,3.4,225.4,0.1L142.9,0v79l79,0c21.8,1.6,37.7,12.3,44.8,30.1
		c11.2,28.1-2.3,66.5-36.1,102.6L79,373.3V79H0L0,500h68.4l219.8-234.3C343.5,206.5,362.8,137.1,340.1,79.9z"/>
</g>
</svg>
